<?xml version="1.0" encoding="UTF-8" standalone="no"?>
<!-- Created with Inkscape (http://www.inkscape.org/) -->

<svg
   width="210mm"
   height="297mm"
   viewBox="0 0 210 297"
   version="1.1"
   id="svg1"
   sodipodi:docname="pataxo_pattern.svg"
   inkscape:version="1.3.2 (091e20e, 2023-11-25)"
   xmlns:inkscape="http://www.inkscape.org/namespaces/inkscape"
   xmlns:sodipodi="http://sodipodi.sourceforge.net/DTD/sodipodi-0.dtd"
   xmlns:xlink="http://www.w3.org/1999/xlink"
   xmlns="http://www.w3.org/2000/svg"
   xmlns:svg="http://www.w3.org/2000/svg">
  <sodipodi:namedview
     id="namedview1"
     pagecolor="#ffffff"
     bordercolor="#000000"
     borderopacity="0.25"
     inkscape:showpageshadow="2"
     inkscape:pageopacity="0.0"
     inkscape:pagecheckerboard="0"
     inkscape:deskcolor="#d1d1d1"
     inkscape:document-units="mm"
     inkscape:zoom="0.82760241"
     inkscape:cx="338.93086"
     inkscape:cy="583.00942"
     inkscape:window-width="1504"
     inkscape:window-height="1052"
     inkscape:window-x="197"
     inkscape:window-y="0"
     inkscape:window-maximized="0"
     inkscape:current-layer="layer1" />
  <defs
     id="defs1">
    <linearGradient
       id="swatch1"
       inkscape:swatch="solid">
      <stop
         style="stop-color:#000000;stop-opacity:1;"
         offset="0"
         id="stop1" />
    </linearGradient>
    <linearGradient
       inkscape:collect="always"
       xlink:href="#swatch1"
       id="linearGradient1"
       x1="51.471474"
       y1="144.82346"
       x2="146.10226"
       y2="144.82346"
       gradientUnits="userSpaceOnUse"
       gradientTransform="matrix(0.99993197,0,0,1.0354413,0.00672062,-0.32536699)" />
  </defs>
  <g
     inkscape:label="Camada 1"
     inkscape:groupmode="layer"
     id="layer1">
    <rect
       style="fill:none;fill-opacity:1;stroke:url(#linearGradient1);stroke-width:0.37365"
       id="rect1"
       width="94.624344"
       height="280.71271"
       x="51.474693"
       y="9.2744799" />
    <path
       style="fill:none;stroke:#000000;stroke-width:0.416066;stroke-dasharray:none;stroke-opacity:1"
       d="m 145.8372,289.29504 v -80.2342 l -84.420661,38.0173 z"
       id="path2" />
    <path
       style="fill:none;stroke:#000000;stroke-width:0.415973;stroke-dasharray:none;stroke-opacity:1"
       d="M 145.43926,90.305516 V 10.092164 L 61.034864,48.0996 Z"
       id="path2-9" />
    <path
       style="fill:none;stroke:#000000;stroke-width:0.415973;stroke-dasharray:none;stroke-opacity:1"
       d="M 51.504118,56.234423 V 136.44777 L 135.9085,98.440347 Z"
       id="path2-9-9" />
    <path
       style="fill:none;stroke:#000000;stroke-width:0.415973;stroke-dasharray:none;stroke-opacity:1"
       d="m 51.503948,156.90827 v 80.21336 L 135.90833,199.1142 Z"
       id="path2-9-9-5" />
    <path
       style="fill:none;stroke:#000000;stroke-width:0.416016;stroke-dasharray:none;stroke-opacity:1"
       d="M 145.76021,188.04376 V 108.08261 L 61.071937,145.97054 Z"
       id="path2-9-5" />
    <path
       style="fill:none;stroke:#000000;stroke-width:0.967;stroke-dasharray:none;stroke-opacity:1"
       d="M 51.711716,244.00654 145.78027,201.38985"
       id="path3" />
    <path
       style="fill:none;stroke:#000000;stroke-width:0.967;stroke-dasharray:none;stroke-opacity:1"
       d="M 145.26055,195.93283 51.711716,149.41827"
       id="path4" />
    <path
       style="fill:none;stroke:#000000;stroke-width:0.967;stroke-dasharray:none;stroke-opacity:1"
       d="m 51.711716,250.76284 75.878504,39.23853"
       id="path5"
       sodipodi:nodetypes="cc" />
    <path
       style="fill:none;stroke:#000000;stroke-width:0.367001;stroke-dasharray:none;stroke-opacity:1"
       d="M 51.711716,262.45645 110.4396,289.74153"
       id="path6" />
    <path
       style="fill:none;stroke:#000000;stroke-width:0.967;stroke-dasharray:none;stroke-opacity:1"
       d="M 51.192001,142.66197 145.78027,100.82485"
       id="path7" />
    <path
       style="fill:none;stroke:#000000;stroke-width:0.967;stroke-dasharray:none;stroke-opacity:1"
       d="M 145.52041,97.70656 51.451859,49.113138"
       id="path8" />
    <path
       style="fill:none;stroke:#000000;stroke-width:0.967;stroke-dasharray:none;stroke-opacity:1;fill-opacity:1"
       d="M 51.711716,44.955412 133.30709,9.0950255"
       id="path9" />
    <path
       style="fill:none;stroke:#000000;stroke-width:0.367001;stroke-dasharray:none;stroke-opacity:1"
       d="M 113.03817,9.3548834 51.451859,34.820955"
       id="path10" />
    <path
       style="fill:#000000;stroke:#000000;stroke-width:1.36231;stroke-dasharray:none;stroke-opacity:1"
       d="M 390.43379,260.106 C 244.11027,186.87948 234.45879,181.89451 236.72889,180.71778 239.06658,179.506 544.31654,41.986663 546.80644,41.023535 c 0.97883,-0.378625 1.22768,29.706466 1.22768,148.424405 0,81.89461 -0.33148,148.87486 -0.73661,148.84499 -0.40513,-0.0299 -70.9938,-35.21398 -156.86372,-78.18693 z"
       id="path11"
       transform="scale(0.26458333)" />
    <path
       style="fill:#000000;stroke:#000000;stroke-width:1.36231;stroke-dasharray:none;stroke-opacity:1"
       d="M 195.44586,363.9968 V 214.59637 l 157.25112,78.62678 c 86.48811,43.24472 157.0917,78.78516 156.89686,78.97873 -0.56998,0.56625 -310.53652,140.15962 -312.42924,140.70244 -1.63152,0.4679 -1.71874,-7.08837 -1.71874,-148.90752 z"
       id="path12"
       transform="scale(0.26458333)" />
    <path
       style="fill:#000000;stroke:#000000;stroke-width:1.36231;stroke-dasharray:none;stroke-opacity:1"
       d="M 392.10328,630.27424 C 305.53107,587.2746 235.03797,551.78249 235.45196,551.40286 c 1.38487,-1.26994 313.65751,-140.61144 314.10832,-140.16062 0.24447,0.24445 0.33255,67.21741 0.19576,148.8288 l -0.24871,148.38434 z"
       id="path13"
       transform="scale(0.26458333)" />
    <path
       style="fill:#000000;stroke:#000000;stroke-width:1.36231;stroke-dasharray:none;stroke-opacity:1"
       d="m 195.44586,744.96636 c 0,-82.11415 0.33147,-149.27403 0.7366,-149.24417 0.40514,0.0299 71.22971,35.34749 157.38794,78.48361 l 156.65133,78.42932 -5.40177,2.42436 c -2.97098,1.3334 -72.35917,32.58604 -154.19598,69.45029 -81.83682,36.86426 -150.23059,67.63997 -151.98617,68.39049 l -3.19195,1.36456 z"
       id="path14"
       transform="scale(0.26458333)" />
    <path
       style="fill:#000000;stroke:#000000;stroke-width:1.36231;stroke-dasharray:none;stroke-opacity:1"
       d="M 392.02807,1012.2402 C 240.17396,936.24613 235.61379,933.88425 238.32316,932.63081 c 1.53571,-0.71048 71.95942,-32.44625 156.49712,-70.52393 84.5377,-38.07769 154.03638,-69.43348 154.44151,-69.67953 0.40513,-0.24606 0.73661,66.75709 0.73661,148.89587 0,82.13878 -0.33148,149.31878 -0.73661,149.28898 -0.40513,-0.03 -71.1603,-35.2973 -157.23372,-78.372 z"
       id="path15"
       transform="scale(0.26458333)" />
    <path
       style="fill:#000000;stroke:#000000;stroke-width:1.36231;stroke-dasharray:none;stroke-opacity:1"
       d="m 195.44586,1044.0272 v -50.56783 l 5.15623,2.31623 c 2.83593,1.27392 49.57352,22.9819 103.86131,48.2399 54.28779,25.258 100.91488,46.9458 103.61577,48.195 l 4.9107,2.2714 -108.77201,0.056 -108.772,0.057 z"
       id="path16"
       transform="scale(0.26458333)" />
    <path
       style="fill:#000000;stroke:#000000;stroke-width:1.36231;stroke-dasharray:none;stroke-opacity:1"
       d="M 195.44586,82.614307 V 35.84811 h 113.10979 c 62.21038,0 112.92563,0.179048 112.70056,0.397885 -0.55016,0.534921 -221.90514,92.068715 -224.09161,92.665435 -1.6194,0.44196 -1.71874,-2.23395 -1.71874,-46.297123 z"
       id="path17"
       transform="scale(0.26458333)" />
  </g>
</svg>
